<svg width="20" height="20" viewBox="0 0 20 20" fill="none" xmlns="http://www.w3.org/2000/svg">
<g id="ant-design:deployment-unit-outlined" clip-path="url(#clip0_517_102)">
<g id="Group">
<path id="Vector" d="M1.28917 14.1942C2.27297 13.6248 3.47205 13.7776 4.27992 14.4905L5.50677 13.7799V10.2683C5.50677 9.90487 5.70122 9.56691 6.01603 9.38635L9.16419 7.57385V6.02061C8.14104 5.67338 7.40492 4.70579 7.40492 3.56458C7.40492 2.13171 8.56465 0.971985 9.99752 0.971985C11.4304 0.971985 12.5901 2.13171 12.5901 3.56458C12.5901 4.70579 11.854 5.67338 10.8309 6.02061V7.57385L13.979 9.38635C14.2938 9.56691 14.4883 9.90487 14.4883 10.2683V13.7776L15.7151 14.4882C16.523 13.7753 17.7244 13.6225 18.7059 14.1919C19.9443 14.9095 20.3656 16.4928 19.6549 17.7313C18.942 18.9697 17.3656 19.3956 16.1318 18.6804C15.148 18.1109 14.6804 16.9905 14.891 15.9303L13.7637 15.2753L10.5091 17.1503C10.3517 17.2405 10.1758 17.2868 9.99984 17.2868C9.82391 17.2868 9.64798 17.2405 9.49058 17.1503L6.23826 15.2776L5.11094 15.9327C5.32159 16.9905 4.85168 18.1132 3.8702 18.6827C2.6364 19.3979 1.05769 18.9743 0.34704 17.7336C-0.365923 16.4928 0.0553741 14.9095 1.28917 14.1942ZM16.8679 17.3979C16.9936 17.4708 17.1325 17.518 17.2766 17.5369C17.4206 17.5559 17.567 17.5461 17.7073 17.5082C17.8476 17.4704 17.979 17.4051 18.0939 17.3163C18.2089 17.2274 18.3052 17.1167 18.3772 16.9905C18.6827 16.4604 18.5022 15.7799 17.9721 15.4743C17.8463 15.4015 17.7075 15.3543 17.5634 15.3353C17.4193 15.3164 17.273 15.3262 17.1327 15.364C16.9924 15.4019 16.861 15.4671 16.746 15.556C16.6311 15.6448 16.5348 15.7555 16.4628 15.8817C16.1573 16.4118 16.3378 17.0924 16.8679 17.3979ZM11.111 3.56458C11.105 3.27382 10.9853 2.99698 10.7776 2.79345C10.5699 2.58992 10.2907 2.47592 9.99984 2.47592C9.70902 2.47592 9.42979 2.58992 9.22206 2.79345C9.01433 2.99698 8.89466 3.27382 8.88872 3.56458C8.89466 3.85534 9.01433 4.13219 9.22206 4.33572C9.42979 4.53925 9.70902 4.65325 9.99984 4.65325C10.2907 4.65325 10.5699 4.53925 10.7776 4.33572C10.9853 4.13219 11.105 3.85534 11.111 3.56458ZM7.17576 13.8933L9.99984 15.5206L12.8239 13.8933V10.6433L9.99984 9.01598L7.17576 10.6433V13.8933ZM1.62251 16.9928C1.92806 17.5229 2.60399 17.7058 3.13177 17.4003C3.65955 17.0947 3.84242 16.4141 3.53686 15.8841C3.23131 15.354 2.55538 15.1711 2.0276 15.4766C1.49751 15.7822 1.31695 16.4604 1.62251 16.9928Z" fill="#828282"/>
</g>
</g>
<defs>
<clipPath id="clip0_517_102">
<rect width="20" height="20" fill="white"/>
</clipPath>
</defs>
</svg>
