<svg width="20" height="20" viewBox="0 0 20 20" fill="none" xmlns="http://www.w3.org/2000/svg">
<g id="akar-icons:location">
<g id="Group">
<path id="Vector" d="M10 10.8334C11.3807 10.8334 12.5 9.71409 12.5 8.33337C12.5 6.95266 11.3807 5.83337 10 5.83337C8.61929 5.83337 7.5 6.95266 7.5 8.33337C7.5 9.71409 8.61929 10.8334 10 10.8334Z" stroke="#828282" stroke-width="2" stroke-linecap="round" stroke-linejoin="round"/>
<path id="Vector_2" d="M9.99967 1.66669C8.23156 1.66669 6.53587 2.36907 5.28563 3.61931C4.03539 4.86955 3.33301 6.56524 3.33301 8.33335C3.33301 9.91002 3.66801 10.9417 4.58301 12.0834L9.99967 18.3334L15.4163 12.0834C16.3313 10.9417 16.6663 9.91002 16.6663 8.33335C16.6663 6.56524 15.964 4.86955 14.7137 3.61931C13.4635 2.36907 11.7678 1.66669 9.99967 1.66669V1.66669Z" stroke="#828282" stroke-width="2" stroke-linecap="round" stroke-linejoin="round"/>
</g>
</g>
</svg>
