<svg width="31" height="30" viewBox="0 0 31 30" fill="none" xmlns="http://www.w3.org/2000/svg">
<g id="carbon:search">
<g id="Group">
<path id="Vector" d="M27.9995 25.8619L20.845 18.7819C22.5643 16.7393 23.4216 14.1195 23.2387 11.4674C23.0558 8.81527 21.8466 6.33504 19.8628 4.54266C17.879 2.75027 15.2733 1.78374 12.5877 1.84413C9.90213 1.90452 7.34346 2.98717 5.44397 4.86687C3.54449 6.74657 2.45044 9.27859 2.38942 11.9362C2.32839 14.5938 3.3051 17.1724 5.11635 19.1355C6.9276 21.0987 9.43394 22.2952 12.114 22.4762C14.794 22.6573 17.4414 21.8089 19.5054 20.1075L26.66 27.1875L27.9995 25.8619ZM4.31533 12.1875C4.31533 10.5187 4.81539 8.8874 5.75228 7.49986C6.68916 6.11232 8.02079 5.03087 9.57877 4.39225C11.1368 3.75364 12.8511 3.58655 14.505 3.91211C16.159 4.23767 17.6782 5.04127 18.8707 6.22127C20.0631 7.40128 20.8751 8.9047 21.2041 10.5414C21.5331 12.1781 21.3643 13.8746 20.7189 15.4164C20.0736 16.9581 18.9808 18.2759 17.5786 19.203C16.1765 20.1301 14.528 20.625 12.8416 20.625C10.5811 20.6225 8.41385 19.7328 6.8154 18.151C5.21695 16.5692 4.31784 14.4245 4.31533 12.1875Z" fill="white"/>
</g>
</g>
</svg>
