<svg width="25" height="25" viewBox="0 0 25 25" fill="none" xmlns="http://www.w3.org/2000/svg">
<g id="fluent:arrow-down-48-regular">
<path id="Vector" d="M2.73429 11.8489C2.56163 11.8489 2.39603 11.9175 2.27394 12.0396C2.15184 12.1617 2.08325 12.3273 2.08325 12.5C2.08325 12.6727 2.15184 12.8382 2.27394 12.9603C2.39603 13.0824 2.56163 13.151 2.73429 13.151L19.6333 13.151L12.9551 19.7182C12.8914 19.7775 12.8401 19.8489 12.8044 19.9283C12.7688 20.0077 12.7494 20.0934 12.7474 20.1804C12.7454 20.2675 12.7609 20.354 12.793 20.4349C12.8251 20.5158 12.873 20.5895 12.934 20.6516C12.9951 20.7136 13.0679 20.7629 13.1483 20.7963C13.2286 20.8297 13.3149 20.8467 13.4019 20.8462C13.489 20.8457 13.575 20.8278 13.655 20.7934C13.735 20.7591 13.8073 20.7091 13.8676 20.6463L21.6801 12.964C21.7417 12.9035 21.7906 12.8312 21.824 12.7516C21.8574 12.6719 21.8745 12.5864 21.8745 12.5C21.8745 12.4136 21.8574 12.3281 21.824 12.2484C21.7906 12.1687 21.7417 12.0965 21.6801 12.0359L13.8676 4.35363C13.8073 4.29088 13.735 4.24086 13.655 4.20654C13.575 4.17221 13.489 4.15428 13.4019 4.15379C13.3149 4.1533 13.2286 4.17027 13.1483 4.20369C13.0679 4.23712 12.9951 4.28632 12.934 4.34839C12.873 4.41046 12.8251 4.48413 12.793 4.56506C12.7609 4.64598 12.7454 4.73251 12.7474 4.81953C12.7494 4.90655 12.7688 4.99229 12.8044 5.07168C12.8401 5.15108 12.8914 5.22251 12.9551 5.28175L19.6333 11.8489L2.73429 11.8489Z" fill="#0D4C79"/>
</g>
</svg>
